<?xml version="1.0" encoding="utf-8"?>
<!-- Svg Vector Icons : http://www.onlinewebfonts.com/icon -->
<!DOCTYPE svg PUBLIC "-//W3C//DTD SVG 1.1//EN" "http://www.w3.org/Graphics/SVG/1.1/DTD/svg11.dtd">
<svg version="1.1" xmlns="http://www.w3.org/2000/svg" xmlns:xlink="http://www.w3.org/1999/xlink" x="0px" y="0px" viewBox="0 0 1000 1000" enable-background="new 0 0 1000 1000" xml:space="preserve">
<metadata> Svg Vector Icons : http://www.onlinewebfonts.com/icon </metadata>
<g><path d="M990,523c0,25.4-20.6,45.9-45.9,45.9c-12.1,0-23-4.8-31.2-12.4l-0.1,0.1L501.2,145.1v0l-1.2-1.1l0,0L88.2,555.7l0,0c-8.3,8.2-19.7,13.2-32.3,13.2c-25.3,0-45.9-20.6-45.9-46c0-13,5.4-24.8,14.1-33.1L466.9,47.1C475.3,38.4,487,33,500,33l0,0l0,0l0,0c0.8,0,1.6,0,2.4,0c0.1,0,0.2,0,0.4,0c0.7,0,1.4,0.1,2.1,0.2c0,0,0.1,0,0.1,0c11.3,1.2,21.2,6.5,28.6,14.4l0,0l180.8,180.8v-42.2c0-25.4,20.6-45.9,45.9-45.9c25.4,0,45.9,20.6,45.9,45.9v134.1l171.4,171.4l-0.1,0.1C985.2,499.9,990,510.9,990,523z M898.1,599.5v137.8v61.3v122.5c0,25.4-20.6,45.9-45.9,45.9h-91.9V599.5H576.6V967H147.8c-25.4,0-45.9-20.6-45.9-45.9V798.6v-61.3V599.5L500,201.4L898.1,599.5z M423.4,599.5H239.7v183.8h183.8V599.5z"/></g>
</svg>