<svg id="Layer_1" data-name="Layer 1" xmlns="http://www.w3.org/2000/svg" viewBox="0 0 16 16"><title>sms</title><path d="M14.5,1H1.5A1.5,1.5,0,0,0,0,2.5v9A1.5,1.5,0,0,0,1.5,13H3v2.5a.5.5,0,0,0,.813.391L7.425,13H14.5A1.5,1.5,0,0,0,16,11.5v-9A1.5,1.5,0,0,0,14.5,1ZM3.5,6a1.5,1.5,0,1,1,0,3h-1a.5.5,0,1,1,0-1h1a.5.5,0,0,0,0-1,1.5,1.5,0,1,1,0-3h1a.5.5,0,0,1,0,1h-1a.5.5,0,0,0,0,1ZM10,8.5a.5.5,0,0,1-1,0V6l-.6.8a.518.518,0,0,1-.8,0L7,6V8.5a.5.5,0,0,1-1,0v-4a.5.5,0,0,1,.9-.3L8,5.667,9.1,4.2a.5.5,0,0,1,.9.3ZM12.5,6a1.5,1.5,0,1,1,0,3h-1a.5.5,0,1,1,0-1h1a.5.5,0,1,0,0-1,1.5,1.5,0,1,1,0-3h1a.5.5,0,0,1,0,1h-1a.5.5,0,1,0,0,1Z"/></svg>